HIERARCHY
ROOT Hips
{
	OFFSET 0.000000 0.000000 0.000000
	CHANNELS 6 Xposition Yposition Zposition Zrotation Yrotation Xrotation 
	JOINT LHipJoint
	{
		OFFSET 0.000000 0.000000 0.000000
		CHANNELS 3 Zrotation Yrotation Xrotation
		JOINT LeftUpLeg
		{
			OFFSET 1.363060 -1.794630 0.839290
			CHANNELS 3 Zrotation Yrotation Xrotation
			JOINT LeftLeg
			{
				OFFSET 2.448110 -6.726130 0.000000
				CHANNELS 3 Zrotation Yrotation Xrotation
				JOINT LeftFoot
				{
					OFFSET 2.562200 -7.039590 0.000000
					CHANNELS 3 Zrotation Yrotation Xrotation
					JOINT LeftToeBase
					{
						OFFSET 0.157640 -0.433110 2.322550
						CHANNELS 3 Zrotation Yrotation Xrotation
						End Site
						{
							OFFSET 0.000000 0.000000 0.000000
						}
					}
				}
			}
		}
	}
	JOINT RHipJoint
	{
		OFFSET 0.000000 0.000000 0.000000
		CHANNELS 3 Zrotation Yrotation Xrotation
		JOINT RightUpLeg
		{
			OFFSET -1.305520 -1.794630 0.839290
			CHANNELS 3 Zrotation Yrotation Xrotation
			JOINT RightLeg
			{
				OFFSET -2.542530 -6.985550 0.000000
				CHANNELS 3 Zrotation Yrotation Xrotation
				JOINT RightFoot
				{
					OFFSET -2.568260 -7.056230 0.000000
					CHANNELS 3 Zrotation Yrotation Xrotation
					JOINT RightToeBase
					{
						OFFSET -0.164730 -0.452590 2.363150
						CHANNELS 3 Zrotation Yrotation Xrotation
						End Site
						{
							OFFSET 0.000000 0.000000 0.000000
						}
					}
				}
			}
		}
	}
}
MOTION
Frames: 11
Frame Time: 0.008333
4.713859 16.691500 -2.428403 106.833949 -82.684142 -125.152933 -6.565543 -5.311770 -0.759583 -24.659037 11.008760 -86.924796 -3.413869 0.774025 15.149540 0.459569 5.397976 19.427260 2.992100 0.000000 -50.800200 11.655767 -0.358451 -5.198848 1.526216 -11.104604 9.222210 0.770259 -2.819650 27.584272 -2.406867 -10.794008 -12.790120 0.696300 0.000000 -59.429500
4.722411 16.673781 -2.426011 105.854443 -82.663541 -124.571287 -6.611231 -5.212992 -1.081490 -24.974123 11.396476 -86.381572 -3.123315 1.074071 17.977774 0.471562 4.939032 20.709958 2.769800 -0.000000 -48.204399 11.716873 -0.380394 -5.201486 1.154030 -11.499897 9.396360 0.756826 -2.836226 27.845149 -2.362044 -10.567054 -12.930403 0.721000 -0.000000 -59.816900
4.729947 16.659705 -2.423893 104.908826 -82.660938 -123.985372 -6.649208 -5.102958 -1.370778 -25.427631 11.826841 -85.815635 -2.871819 1.303899 20.499206 0.493680 4.550243 21.539571 2.548399 0.000000 -46.343700 11.764704 -0.409342 -5.182540 0.852510 -11.834318 9.568075 0.742411 -2.843840 28.025270 -2.334163 -10.427181 -13.051970 0.743700 -0.000001 -60.148800
4.736273 16.649436 -2.421354 104.098057 -82.673522 -123.487535 -6.687848 -4.980480 -1.621866 -25.969507 12.302960 -85.261129 -2.654859 1.481882 22.782827 0.530275 4.334062 21.904209 2.390800 -0.000000 -45.373900 11.791927 -0.446119 -5.138403 0.640442 -12.090241 9.725111 0.728165 -2.842819 28.131292 -2.324831 -10.381666 -13.160499 0.766900 -0.000000 -60.391900
4.741386 16.642833 -2.418214 103.455429 -82.691795 -123.110400 -6.729693 -4.847142 -1.835229 -26.549302 12.824844 -84.707365 -2.465114 1.619450 24.851590 0.587033 4.382320 21.883545 2.351800 -0.000000 -45.494300 11.800812 -0.489483 -5.068990 0.506719 -12.267602 9.859297 0.714014 -2.834317 28.177438 -2.331992 -10.419427 -13.261955 0.792000 -0.000000 -60.533000
4.745393 16.639334 -2.414022 103.075185 -82.703844 -122.961823 -6.778558 -4.707382 -2.019301 -27.136289 13.416490 -84.153060 -2.296348 1.727060 26.749517 0.664525 4.704615 21.530893 2.434600 0.000000 -46.320900 11.787270 -0.537583 -4.977539 0.445512 -12.360494 9.983406 0.700228 -2.820368 28.172657 -2.354116 -10.530923 -13.359708 0.819600 0.000001 -60.563300
4.748438 16.638319 -2.408852 102.962149 -82.699165 -123.056909 -6.834448 -4.566097 -2.180629 -27.689545 14.083266 -83.558289 -2.143420 1.807842 28.462442 0.765512 5.309343 20.962419 2.638900 0.000000 -47.666700 11.756570 -0.587308 -4.870424 0.429857 -12.382668 10.105288 0.686371 -2.802967 28.131790 -2.386950 -10.693242 -13.458081 0.849800 -0.000000 -60.491200
4.750734 16.638962 -2.402856 103.106024 -82.671773 -123.397867 -6.897795 -4.428222 -2.325934 -28.174599 14.827610 -82.884282 -2.003323 1.863482 29.973105 0.889342 6.164198 20.281585 2.942900 -0.000000 -49.158999 11.713211 -0.635584 -4.755982 0.436351 -12.352490 10.235527 0.672348 -2.784027 28.067267 -2.426095 -10.883040 -13.559610 0.882100 -0.000000 -60.331500
4.752650 16.640495 -2.396411 103.426474 -82.622839 -123.912143 -6.967562 -4.297372 -2.459605 -28.558958 15.635421 -82.084399 -1.874625 1.893686 31.247346 1.033148 7.222934 19.596171 3.323200 0.000000 -50.486900 11.665618 -0.679610 -4.643736 0.438770 -12.299372 10.379010 0.658134 -2.764989 27.991357 -2.466543 -11.074756 -13.666779 0.915800 0.000000 -60.106400
4.754146 16.642142 -2.389553 103.903263 -82.556068 -124.586238 -7.045965 -4.175962 -2.584924 -28.823320 16.499262 -81.147369 -1.756589 1.902190 32.296589 1.188938 8.399931 18.961105 3.741000 -0.000000 -51.273400 11.614585 -0.718516 -4.540265 0.429390 -12.241578 10.542499 0.644555 -2.746936 27.911543 -2.504914 -11.250907 -13.780474 0.950500 0.000001 -59.836600
4.755411 16.643265 -2.382531 104.451988 -82.482220 -125.337758 -7.133447 -4.064532 -2.702749 -28.954558 17.395473 -80.059400 -1.649137 1.891469 33.119214 1.348130 9.620105 18.428047 4.169400 0.000000 -51.343200 11.564481 -0.752011 -4.451281 0.400614 -12.203348 10.722482 0.632457 -2.730427 27.835485 -2.537961 -11.395810 -13.901771 0.985600 0.000000 -59.542100
